<?xml version="1.0" encoding="UTF-8"?>
<svg id="_レイヤー_2" data-name=" レイヤー 2" xmlns="http://www.w3.org/2000/svg" version="1.1" viewBox="0 0 142.7 60.3">
  <defs>
    <style>
      .cls-1 {
        fill: #2a3d52;
        stroke-width: 0px;
      }
    </style>
  </defs>
  <g id="layout">
    <path class="cls-1" d="M14,20.3h5c1,0,1.8-.1,2.6-.4.8-.3,1.5-.6,2.1-1.1.6-.5,1-1.1,1.3-1.8.3-.7.5-1.4.5-2.3s-.2-1.5-.5-2.2c-.3-.7-.8-1.2-1.3-1.7s-1.2-.8-2-1.1-1.7-.4-2.7-.4-1.9.1-2.7.4c-.8.3-1.5.7-2.1,1.2s-1.1,1.1-1.4,1.8c-.4.7-.6,1.5-.6,2.4h-7.9c0-1.9.5-3.7,1.2-5.2s1.7-2.9,3-4c1.3-1.1,2.8-1.9,4.6-2.5,1.8-.6,3.8-.9,6-.9s4,.3,5.8.8c1.8.5,3.3,1.3,4.5,2.3s2.3,2.1,3,3.5c.7,1.3,1.1,2.8,1.1,4.4s-.2,2.3-.5,3.3-.9,1.9-1.5,2.8-1.4,1.5-2.4,2.1c-.9.6-2,1-3.1,1.2v.5c1.4.1,2.6.5,3.8,1,1.1.5,2.1,1.2,2.9,2.1.8.8,1.4,1.8,1.8,2.9.4,1.1.6,2.3.6,3.7s-.4,3.4-1.2,4.9-1.9,2.8-3.3,3.9c-1.4,1.1-3.1,1.9-5.1,2.5s-4.1.9-6.4.9-4.3-.3-6.2-.9c-1.9-.6-3.5-1.5-4.8-2.6-1.4-1.1-2.4-2.4-3.2-4s-1.2-3.3-1.3-5.2h8.1c0,.9.3,1.6.7,2.3.4.7.9,1.3,1.6,1.8s1.4.9,2.3,1.1c.9.3,1.9.4,3,.4s2-.1,2.9-.4c.9-.3,1.6-.7,2.3-1.2s1.1-1.1,1.5-1.9.5-1.5.5-2.4c0-1.8-.6-3.2-2-4.2-1.3-1-3.1-1.5-5.4-1.5h-5v-6.3h0Z"/>
    <g>
      <path class="cls-1" d="M75.7,27.9c-.4-1-.9-1.9-1.4-2.7-.5-.9-.9-1.6-1.3-2.2l-2.9,1.2c.5.6,1,1.3,1.4,2.1.5.8.9,1.7,1.3,2.7.4,1,.8,1.9,1.1,2.8.3.9.6,1.7.8,2.5l3.1-1.4c-.2-.6-.5-1.4-.9-2.3-.4-.9-.8-1.8-1.2-2.8Z"/>
      <path class="cls-1" d="M67.6,25.8c-.7-.3-1.5-.5-2.4-.5s-.9,0-1.5,0c-.3,0-.6,0-1,0,0,0,0-.1,0-.2,0-.5.2-1.1.3-1.6.1-.5.2-1,.3-1.3,0-.3.1-.7.2-1,0-.4.1-.7.2-1l-3.6-.4c0,1,0,2.1-.2,3.3-.1.8-.3,1.7-.4,2.5,0,0,0,0,0,0-.7,0-1.4.1-2,.1-.6,0-1.2,0-1.6,0-.5,0-.9,0-1.4,0-.4,0-.9,0-1.4,0l.3,3.3c.4,0,.9-.1,1.4-.2s1-.1,1.4-.2c.4,0,.9-.1,1.6-.2.3,0,.6,0,1-.1,0,.2,0,.4-.1.6-.3.9-.6,1.9-.9,3-.4,1.1-.8,2.2-1.2,3.3-.5,1.1-.9,2.2-1.5,3.2-.5,1-1.1,2-1.8,2.8l3.2,1.2c.6-.9,1.1-1.9,1.6-3.1s1-2.3,1.4-3.4c.4-1.2.8-2.3,1.2-3.5.4-1.2.7-2.2.9-3.2.1-.5.2-.9.3-1.3.2,0,.3,0,.5,0,.7,0,1.3,0,1.7,0s1.1,0,1.5.2c.4.1.7.4.9.7.2.4.3.9.3,1.7s0,1.8-.1,2.8c0,1-.2,1.9-.4,2.8-.2.9-.4,1.6-.7,2.1-.2.5-.5.8-.9,1s-.8.2-1.2.2-.5,0-.9,0c-.4,0-.8-.1-1.2-.2s-.8-.2-1.2-.3l.5,3.2c.4,0,1,.2,1.6.3.6,0,1.1.1,1.6.1,1,0,1.8-.2,2.6-.5.7-.3,1.3-1,1.7-1.9.4-.8.7-1.7.9-2.8.2-1.1.4-2.3.5-3.6s.1-2.4.1-3.4-.2-2.3-.6-3c-.4-.7-1-1.2-1.7-1.6Z"/>
      <path class="cls-1" d="M101.8,20.1h-14.3v8.7c0,1,0,2.1-.1,3.3,0,1.2-.3,2.3-.6,3.5s-.8,2.3-1.4,3.3c-.6,1.1-1.4,2.1-2.5,3,.2.1.5.3.8.6s.6.5.8.8c.3.3.5.5.6.7,1.2-1,2.1-2.1,2.8-3.3s1.2-2.6,1.6-3.9c0-.3.1-.6.2-.9h12v4.3c0,.3,0,.5-.2.6s-.3.2-.7.2h-1.1c-.5,0-1.1,0-1.8,0-.7,0-1.3,0-2,0,.2.3.3.6.5.9s.3.8.4,1.1.2.7.3,1c1.4,0,2.6,0,3.6,0,1,0,1.8-.2,2.4-.5.6-.2,1-.6,1.2-1.1.3-.5.4-1.2.4-2.1v-20.1h-3.1ZM101.8,22.9v3.6h-11.3v-3.6h11.3ZM90.3,32.9c0-.1,0-.2,0-.3.1-1.2.2-2.3.2-3.3h11.3v3.6h-11.5Z"/>
      <path class="cls-1" d="M116.7,20.3v23.4h2.9v-1.7h13v1.7h3.1v-23.4h-19ZM132.6,23.1v3.4h-13v-3.4h13ZM132.6,29.3v3.6h-13v-3.6h13ZM119.6,39.1v-3.6h13v3.6h-13Z"/>
    </g>
  </g>
</svg>