<?xml version="1.0" encoding="UTF-8"?>
<svg id="_レイヤー_2" data-name=" レイヤー 2" xmlns="http://www.w3.org/2000/svg" version="1.1" viewBox="0 0 141.2 60.3">
  <defs>
    <style>
      .cls-1 {
        fill: #2a3d52;
        stroke-width: 0px;
      }
    </style>
  </defs>
  <g id="layout">
    <path class="cls-1" d="M4.7,10.4c.7-1.6,1.7-3,3-4.2,1.3-1.2,2.9-2.1,4.7-2.7,1.8-.6,3.8-1,6-1s4.1.3,5.8.9,3.3,1.4,4.5,2.4c1.3,1,2.2,2.3,3,3.8.7,1.5,1.1,3.1,1.1,4.8s-.2,2.2-.5,3.3c-.3,1.1-.9,2.2-1.6,3.3s-1.7,2.4-2.9,3.8c-1.2,1.3-2.7,2.8-4.4,4.5l-7.8,7.4v.5h17.8v7.1H4.1v-5.9l13.3-13c1.4-1.4,2.6-2.6,3.5-3.6s1.7-1.9,2.2-2.7.9-1.5,1.1-2.1c.2-.6.3-1.3.3-1.9s-.2-1.6-.5-2.2-.8-1.3-1.3-1.8-1.2-.9-2-1.2-1.6-.4-2.5-.4-1.9.2-2.7.5-1.5.7-2.1,1.3c-.6.6-1.1,1.2-1.4,2s-.5,1.6-.5,2.6v.2H3.6c0-2.1.4-3.9,1.1-5.5h0Z"/>
    <g>
      <path class="cls-1" d="M73.7,27.9c-.4-1-.9-1.9-1.4-2.7-.5-.9-.9-1.6-1.3-2.2l-2.9,1.2c.5.6,1,1.3,1.4,2.1.5.8.9,1.7,1.3,2.7.4,1,.8,1.9,1.1,2.8.3.9.6,1.7.8,2.5l3.1-1.4c-.2-.6-.5-1.4-.9-2.3-.4-.9-.8-1.8-1.2-2.8Z"/>
      <path class="cls-1" d="M65.6,25.8c-.7-.3-1.5-.5-2.4-.5s-.9,0-1.5,0c-.3,0-.6,0-1,0,0,0,0-.1,0-.2,0-.5.2-1.1.3-1.6.1-.5.2-1,.3-1.3,0-.3.1-.7.2-1,0-.4.1-.7.2-1l-3.6-.4c0,1,0,2.1-.2,3.3-.1.8-.3,1.7-.4,2.5,0,0,0,0,0,0-.7,0-1.4.1-2,.1-.6,0-1.2,0-1.6,0-.5,0-.9,0-1.4,0-.4,0-.9,0-1.4,0l.3,3.3c.4,0,.9-.1,1.4-.2s1-.1,1.4-.2c.4,0,.9-.1,1.6-.2.3,0,.6,0,1-.1,0,.2,0,.4-.1.6-.3.9-.6,1.9-.9,3-.4,1.1-.8,2.2-1.2,3.3-.5,1.1-.9,2.2-1.5,3.2-.5,1-1.1,2-1.8,2.8l3.2,1.2c.6-.9,1.1-1.9,1.6-3.1s1-2.3,1.4-3.4c.4-1.2.8-2.3,1.2-3.5.4-1.2.7-2.2.9-3.2.1-.5.2-.9.3-1.3.2,0,.3,0,.5,0,.7,0,1.3,0,1.7,0s1.1,0,1.5.2c.4.1.7.4.9.7.2.4.3.9.3,1.7s0,1.8-.1,2.8c0,1-.2,1.9-.4,2.8-.2.9-.4,1.6-.7,2.1-.2.5-.5.8-.9,1s-.8.2-1.2.2-.5,0-.9,0c-.4,0-.8-.1-1.2-.2s-.8-.2-1.2-.3l.5,3.2c.4,0,1,.2,1.6.3.6,0,1.1.1,1.6.1,1,0,1.8-.2,2.6-.5.7-.3,1.3-1,1.7-1.9.4-.8.7-1.7.9-2.8.2-1.1.4-2.3.5-3.6s.1-2.4.1-3.4-.2-2.3-.6-3c-.4-.7-1-1.2-1.7-1.6Z"/>
      <path class="cls-1" d="M99.8,20.1h-14.3v8.7c0,1,0,2.1-.1,3.3,0,1.2-.3,2.3-.6,3.5s-.8,2.3-1.4,3.3c-.6,1.1-1.4,2.1-2.5,3,.2.1.5.3.8.6s.6.5.8.8c.3.3.5.5.6.7,1.2-1,2.1-2.1,2.8-3.3s1.2-2.6,1.6-3.9c0-.3.1-.6.2-.9h12v4.3c0,.3,0,.5-.2.6s-.3.2-.7.2h-1.1c-.5,0-1.1,0-1.8,0-.7,0-1.3,0-2,0,.2.3.3.6.5.9s.3.8.4,1.1.2.7.3,1c1.4,0,2.6,0,3.6,0,1,0,1.8-.2,2.4-.5.6-.2,1-.6,1.2-1.1.3-.5.4-1.2.4-2.1v-20.1h-3.1ZM99.8,22.9v3.6h-11.3v-3.6h11.3ZM88.3,32.9c0-.1,0-.2,0-.3.1-1.2.2-2.3.2-3.3h11.3v3.6h-11.5Z"/>
      <path class="cls-1" d="M114.7,20.3v23.4h2.9v-1.7h13v1.7h3.1v-23.4h-19ZM130.6,23.1v3.4h-13v-3.4h13ZM130.6,29.3v3.6h-13v-3.6h13ZM117.6,39.1v-3.6h13v3.6h-13Z"/>
    </g>
  </g>
</svg>