<?xml version="1.0" encoding="UTF-8"?><svg id="_レイヤー_2" xmlns="http://www.w3.org/2000/svg" viewBox="0 0 409.8 80.3"><defs><style>.cls-1{fill:#ff3895;stroke-width:0px;}</style></defs><g id="layout"><path class="cls-1" d="m9.14,43.05c2.74,0,3.64-.07,3.82-.07.36,0,.4.04.4.4v2.56c0,.4-.04.43-.4.43-.18,0-1.08-.07-3.82-.07h-3.31c-2.74,0-3.64.07-3.82.07-.36,0-.4-.04-.4-.43v-2.56c0-.36.04-.4.4-.4.18,0,1.08.07,3.82.07h3.31Zm3.28,20.45c0,4.18.07,4.97.07,5.18,0,.36-.04.4-.4.4h-2.45c-.36,0-.4-.04-.4-.4v-1.01h-3.17v1.66c0,.36-.04.4-.4.4h-2.41c-.4,0-.43-.04-.43-.4,0-.22.07-1.04.07-5.4v-2.3c0-2.27-.07-3.13-.07-3.38,0-.36.04-.4.43-.4.22,0,.97.07,3.28.07h2.23c2.3,0,3.06-.07,3.31-.07.36,0,.4.04.4.4,0,.22-.07,1.08-.07,2.77v2.48Zm-3.46-25.38c2.3,0,3.02-.07,3.24-.07.4,0,.43.04.43.4v2.38c0,.36-.04.4-.43.4-.22,0-.94-.07-3.24-.07h-2.41c-2.34,0-3.06.07-3.28.07-.36,0-.4-.04-.4-.4v-2.38c0-.36.04-.4.4-.4.22,0,.94.07,3.28.07h2.41Zm-.32,10.04c2.16,0,2.81-.07,3.02-.07.4,0,.43.04.43.4v2.34c0,.36-.04.4-.43.4-.22,0-.86-.07-3.02-.07h-1.94c-2.2,0-2.84.07-3.06.07-.36,0-.4-.04-.4-.4v-2.34c0-.36.04-.4.4-.4.22,0,.86.07,3.06.07h1.94Zm0,4.86c2.16,0,2.81-.07,3.02-.07.4,0,.43.04.43.4v2.3c0,.36-.04.4-.43.4-.22,0-.86-.07-3.02-.07h-1.94c-2.2,0-2.84.07-3.06.07-.36,0-.4-.04-.4-.4v-2.3c0-.36.04-.4.4-.4.22,0,.86.07,3.06.07h1.94Zm-2.56,7.88v3.78h3.17v-3.78h-3.17Zm28.62,2.41c0,.4-.04.43-.4.43-.11,0-.72-.04-1.98-.04.04.79.07,1.55.07,2.16,0,1.51-.18,2.16-.83,2.77-.65.61-1.51.72-4.25.76q-1.08,0-1.33-1.12c-.18-.76-.5-1.58-.79-2.09,1.01.07,1.87.11,2.74.11.97,0,1.19-.25,1.19-.97v-1.66h-10.69v1.62c0,2.56.07,3.78.07,4,0,.32-.04.36-.4.36h-2.52c-.36,0-.4-.04-.4-.36,0-.25.07-1.33.07-3.89v-1.69c-1.04,0-1.51.04-1.62.04-.36,0-.4-.04-.4-.43v-1.98c0-.36.04-.4.4-.4.11,0,.58.04,1.62.07v-4.18c0-2.52-.07-3.67-.07-3.92,0-.36.04-.4.4-.4.22,0,1.3.07,4.46.07h1.91v-1.69h-3.31c-3.46,0-4.64.07-4.86.07-.36,0-.4-.04-.4-.43v-1.87c0-.36.04-.4.4-.4.22,0,1.4.07,4.86.07v-1.8c-2.12.04-2.92.07-3.1.07-.36,0-.4-.04-.4-.4v-1.69c0-.32.04-.36.4-.36.18,0,.97.07,3.1.07v-1.76c-2.77.04-3.82.07-4,.07-.36,0-.4-.04-.4-.43v-1.73c0-.36.04-.4.4-.4.18,0,1.22.07,4,.07v-.58c0-1.26-.04-2.02-.22-2.7,1.19.07,2.3.14,3.28.25.36.04.54.18.54.29,0,.22-.07.36-.18.58-.18.32-.22.68-.22,1.69v.47h3.56v-.58c0-1.26-.04-2.02-.22-2.7,1.19.07,2.3.14,3.28.25.36.04.54.18.54.29,0,.22-.11.43-.22.65-.18.32-.18.61-.18,1.62v.47c3.28,0,4.43-.07,4.68-.07.36,0,.4.04.4.4v1.73c0,.4-.04.43-.4.43-.25,0-1.4-.07-4.68-.07v1.76c2.56,0,3.56-.07,3.78-.07.36,0,.4.04.4.36v1.69c0,.36-.04.4-.4.4-.22,0-1.22-.04-3.78-.07v1.8h.54c3.49,0,4.68-.07,4.9-.07.32,0,.36.04.36.4v1.87c0,.4-.04.43-.36.43-.22,0-1.4-.07-4.9-.07h-4.07v1.69h2.38c3.17,0,4.28-.07,4.5-.07.36,0,.4.04.4.4,0,.22-.07,1.62-.07,4.25v3.85c1.3-.04,1.91-.07,2.02-.07.36,0,.4.04.4.4v1.98Zm-12.71-6.37v-1.87h-3.56v1.87h3.56Zm0,4.07v-1.91h-3.56v1.91h3.56Zm3.42-16.78v-1.76h-3.56v1.76h3.56Zm0,4.1v-1.8h-3.56v1.8h3.56Zm-.36,6.73v1.87h4.07v-1.87h-4.07Zm4.07,5.94v-1.91h-4.07v1.91h4.07Z"/><path class="cls-1" d="m47.77,48.37c0,2.63-.04,4.82-.14,6.73,2.02-2.16,3.06-4.39,3.92-7.16.22-.68.32-1.62.4-2.41.97.22,2.2.43,3.02.68.43.14.61.29.61.5s-.11.36-.22.5c-.22.25-.36.54-.58,1.22-.18.58-.32,1.12-.5,1.62.94,1.48,2.09,2.88,3.71,4.18-.47.47-1.12,1.04-1.51,1.69-.29.5-.47.76-.65.76s-.4-.22-.72-.61c-.94-1.01-1.62-1.87-2.16-2.77-.54,1.08-1.22,2.12-2.02,3.13-.4.54-.58.76-.76.76-.14,0-.29-.14-.47-.32-.58-.58-1.58-1.26-2.12-1.55-.11,1.8-.29,3.35-.5,4.86-.5,3.2-1.33,5.69-2.7,8.39-.25.47-.4.72-.58.72s-.4-.22-.72-.58c-.76-.86-1.69-1.73-2.34-2.12,1.4-2.34,2.34-4.72,2.81-7.96.4-2.74.58-5.9.58-10.98,0-4.79-.07-6.95-.07-7.16,0-.32.04-.36.4-.36.22,0,1.4.07,4.82.07h7.16v-.83c0-1.08-.04-2.02-.22-2.92,1.4.04,2.63.11,3.82.22.36.04.58.22.58.36,0,.25-.11.43-.22.68-.14.29-.25.79-.25,1.58v.9h8.17c3.42,0,4.57-.07,4.79-.07.32,0,.36.04.36.36v2.59c0,.36-.04.4-.36.4-.22,0-1.37-.07-4.79-.07h-20.56v4.97Zm4.57,20.09c-3.53,0-4.72.07-4.93.07-.36,0-.4-.04-.4-.43v-2.56c0-.36.04-.4.4-.4.22,0,1.4.07,4.93.07h5.69v-3.64h-3.24c-3.46,0-4.68.07-4.9.07-.4,0-.43-.04-.43-.43v-2.45c0-.36.04-.4.43-.4.22,0,1.44.07,4.9.07h3.24v-10.12c0-1.76-.04-2.77-.22-3.92,1.33.04,2.38.11,3.6.25.36.04.58.22.58.43,0,.25-.07.54-.22.79-.22.43-.22,1.04-.22,2.52v6.62c2.09-2.23,3.17-4.46,4.07-7.2.25-.83.4-1.58.43-2.3.94.18,2.16.43,2.99.72.4.11.61.29.61.47,0,.22-.11.36-.25.5-.22.25-.36.47-.58,1.22l-.4,1.22c1.15,1.73,2.63,3.31,4.57,4.72-.54.43-1.22,1.15-1.62,1.84-.29.47-.47.72-.65.72s-.4-.18-.76-.54c-1.08-1.08-2.09-2.3-2.88-3.56-.65,1.26-1.4,2.45-2.3,3.56-.32.43-.5.65-.68.65-.22,0-.43-.22-.83-.61-.5-.5-1.22-1.01-1.73-1.22v3.24h4.36c3.46,0,4.64-.07,4.86-.07.4,0,.43.04.43.4v2.45c0,.4-.04.43-.43.43-.22,0-1.4-.07-4.86-.07h-4.36v3.64h6.73c3.49,0,4.72-.07,4.93-.07.36,0,.4.04.4.4v2.56c0,.4-.04.43-.4.43-.22,0-1.44-.07-4.93-.07h-15.95Z"/><path class="cls-1" d="m101.09,61.66c0,.4-.22.58-.68.65-.47.07-1.55.18-2.56.18-.32,0-.47-.22-.47-.58,0-1.3,0-3.1.04-4.39-3.2,1.66-4.36,3.06-4.36,4.79,0,1.51,1.22,2.48,5,2.48,3.31,0,6.19-.32,8.96-.72.32-.04.47.07.5.4.18.83.32,2.09.32,2.95.04.43-.11.68-.4.68-3.1.4-5.44.47-8.93.47-5.9,0-9.04-1.76-9.04-5.94,0-3.46,2.16-5.98,7.6-8.78-.11-1.84-.54-2.56-2.16-2.48-1.69.07-3.31,1.15-4.97,2.59-1.55,1.51-2.45,2.56-3.6,3.92-.18.22-.29.32-.43.32-.11,0-.25-.11-.4-.25-.5-.5-1.58-1.62-2.05-2.38-.11-.14-.14-.25-.14-.32,0-.14.07-.25.25-.4,2.77-2.48,5.44-5.33,7.52-8.93-1.69.07-3.64.11-5.76.11-.32,0-.43-.18-.5-.58-.11-.58-.25-1.91-.36-2.99,2.74.14,5.54.11,8.28-.04.4-.97.72-1.84,1.08-3.1.14-.61.25-1.22.25-2.2,1.58.25,3.17.65,4.1,1.01.29.11.43.36.43.61,0,.18-.07.4-.25.54-.22.18-.43.5-.61.86-.22.5-.4.97-.83,1.94,2.2-.25,4.39-.61,6.55-1.12.4-.07.5.04.58.36.18.72.32,1.55.36,2.59.04.36-.11.5-.61.58-2.7.4-5.8.79-8.42,1.08-.83,1.33-1.62,2.66-2.7,4l.04.07c1.15-.76,2.63-1.12,3.6-1.12,2.38,0,4.03,1.08,4.39,3.89,1.4-.65,3.46-1.58,5.29-2.52.68-.36,1.84-1.01,2.74-1.94,1.19,1.26,2.12,2.52,2.52,3.17.22.32.29.58.29.79,0,.29-.18.43-.54.5-.76.11-1.48.29-2.2.54-2.34.83-4.68,1.62-7.74,2.88v5.8Z"/><path class="cls-1" d="m128.52,62.02c.72,1.69,1.84,2.45,3.35,3.02,1.33.43,3.53.65,6.66.65,4.64,0,10.01-.18,15.41-.72-.54.76-.79,1.55-.9,2.41q-.18,1.15-1.33,1.22c-4.57.25-8.86.36-12.6.36s-6.77-.25-8.5-.97c-1.66-.68-2.81-1.76-3.78-3.24-.94,1.01-2.05,1.98-3.35,3.06-.36.32-.58.5-.76.76-.18.25-.32.36-.5.36-.22,0-.4-.18-.54-.47-.5-.94-.97-2.02-1.48-3.31.9-.43,1.4-.68,2.12-1.19.94-.61,1.84-1.4,2.7-2.23v-8.03h-1.48c-1.87,0-2.34.07-2.52.07-.4,0-.43-.04-.43-.43v-2.74c0-.36.04-.4.43-.4.18,0,.65.07,2.52.07h2.02c1.87,0,2.45-.07,2.63-.07.36,0,.4.04.4.4,0,.22-.07,1.26-.07,3.49v7.92Zm-1.8-16.42c-.22.18-.36.25-.47.25s-.22-.07-.32-.25c-1.33-2.16-2.81-4.1-4.43-5.62-.29-.25-.22-.32.18-.61l1.84-1.33c.43-.29.5-.32.79-.07,1.66,1.55,3.2,3.31,4.54,5.36.18.29.18.4-.22.72l-1.91,1.55Zm6.37-5.18c-2.2,0-2.92.07-3.13.07-.36,0-.4-.04-.4-.4v-1.91c0-.36.04-.4.4-.4.22,0,.94.07,3.13.07h3.67c1.73,0,2.34-.07,2.56-.07.4,0,.43.04.43.4,0,.22-.07.83-.07,2.3v1.51c0,1.44.07,2.09.07,2.3,0,.32-.04.36-.43.36-.22,0-.83-.07-2.56-.07h-3.64v.9c0,.83.07,1.08.22,1.22.25.22.65.25,1.84.25,1.3,0,1.73-.07,1.98-.32.22-.25.22-.76.25-1.62.72.36,1.44.61,2.38.86.68.18.72.22.58,1.15-.14.83-.36,1.26-.76,1.62-.65.58-1.84.68-4.57.68s-3.78-.11-4.36-.58c-.68-.54-.86-1.22-.86-2.74v-1.94c0-.76-.07-1.19-.07-1.44,0-.36.04-.4.43-.4.22,0,.86.07,2.34.07h3.89v-1.91h-3.31Zm2.16,19.19c-3.53,0-4.75.07-4.97.07-.36,0-.4-.04-.4-.43v-1.94c0-.36.04-.4.4-.4.22,0,1.44.07,4.97.07h.47v-2.27c-2.95,0-4.03.07-4.21.07-.4,0-.43-.04-.43-.43v-1.94c0-.36.04-.4.43-.4.18,0,1.26.07,4.21.07-.04-.97-.11-1.58-.22-2.3,1.3.07,2.05.11,3.28.25.32.04.58.18.58.36,0,.22-.07.29-.22.54-.18.36-.18.61-.18,1.15h4.57c0-1.04-.07-1.66-.22-2.3,1.3.07,2.09.11,3.28.25.36.04.58.18.58.4s-.07.29-.22.54c-.18.29-.18.61-.18,1.08v.07c2.84-.04,3.89-.11,4.1-.11.4,0,.43.04.43.4v1.94c0,.4-.04.43-.43.43-.22,0-1.26-.04-4.1-.07v2.27h.65c3.53,0,4.75-.07,4.97-.07.36,0,.4.04.4.4v1.94c0,.4-.04.43-.4.43-.22,0-1.44-.07-4.97-.07h-1.87c1.84,1.12,4.07,1.98,7.24,2.63-.5.54-.97,1.22-1.3,1.87s-.54.9-.9.9c-.18,0-.47-.11-.83-.22-2.45-.79-4.57-1.84-6.77-3.35-.29-.22-.22-.29.11-.61l1.22-1.22h-6.98c.65.4,1.26.79,1.84,1.22.36.25.5.36.5.54s-.18.32-.47.4c-.25.07-.72.47-1.15.68-1.15.76-2.77,1.55-4.43,2.16-.4.14-.65.25-.86.25-.32,0-.54-.25-1.01-.79-.47-.58-1.04-1.08-1.66-1.51,2.16-.61,3.96-1.3,5.22-1.98.47-.25.94-.58,1.4-.97h-1.48Zm8.28-2.63v-2.27h-4.57v2.27h4.57Zm1.4-16.56c-2.23,0-2.88.07-3.1.07-.4,0-.43-.04-.43-.4v-1.91c0-.36.04-.4.43-.4.22,0,.86.07,3.1.07h3.82c1.69,0,2.34-.07,2.56-.07.36,0,.4.04.4.4,0,.22-.07.83-.07,2.3v1.51c0,1.44.07,2.09.07,2.3,0,.32-.04.36-.4.36-.22,0-.86-.07-2.56-.07h-3.64v.94c0,.83.04,1.01.22,1.19.22.18.61.25,1.94.25,1.12,0,1.73-.07,1.94-.29.25-.22.32-.76.36-1.66.68.36,1.62.68,2.41.83.83.14.83.25.68,1.22-.14.83-.36,1.22-.76,1.55-.68.61-2.05.72-4.93.72s-3.96-.11-4.54-.58c-.61-.54-.79-1.22-.79-2.74v-1.94c0-.76-.07-1.19-.07-1.44,0-.36.04-.4.4-.4.25,0,.86.07,2.41.07h3.89v-1.91h-3.35Z"/><path class="cls-1" d="m169.67,61.48c.22.25.32.47.32.65s0,.32-.32.72c-.5.65-1.08,1.26-1.73,1.73-.97.79-2.05,1.33-3.02,1.33-1.91,0-3.82-1.08-4.93-4.75-.11-.43-.07-.5.11-.68.65-.65,1.62-1.4,2.2-1.84.11-.11.22-.18.32-.18s.18.11.25.32c.9,2.23,1.48,2.84,2.09,2.84.54,0,.86-.18,1.26-.5.83-.68,1.4-1.22,2.23-2.38.32,1.26.86,2.27,1.22,2.74Zm5.98,2.74c1.8,0,2.63-.76,2.63-2.05s-.65-1.94-3.56-4.36c-2.41-1.98-3.13-3.42-3.13-5.08,0-2.05.76-3.56,2.48-5.4,1.15.79,1.69,1.15,2.56,1.98.11.11.14.18.14.29s-.11.22-.22.4c-.68.83-1.04,1.76-1.04,2.56,0,.9.65,1.55,2.99,3.38,3.35,2.63,4.18,4.54,4.18,6.59,0,3.74-3.38,5.58-6.73,5.58-1.58,0-2.81-.18-3.96-.58-.43-.14-.54-.32-.58-.72-.14-1.26-.32-2.7-.94-3.78,2.05.86,3.74,1.19,5.18,1.19Zm-2.12-25.27c.14-.25.4-.32.72-.22,2.92,1.01,5.15,2.09,7.42,3.56.32.22.43.54.22.94-.22.54-1.19,1.98-1.62,2.59-.18.25-.32.36-.5.36-.14,0-.29-.07-.5-.25-1.98-1.4-4.43-2.81-7.7-4.03.68-1.04,1.33-2.09,1.98-2.95Zm12.74,14.58c.18-.07.25-.14.36-.14.07,0,.14.04.25.14,2.52,2.05,4.46,4.61,5.51,6.77.22.32.14.5-.14.79-.5.58-1.73,1.51-2.63,2.09-.32.22-.58.11-.76-.29-1.08-2.48-2.74-5.11-5.26-7.38.86-.72,1.91-1.44,2.66-1.98Zm.07-9.83c.18-.14.32-.11.54.07,1.12.86,2.41,2.3,3.42,3.85.14.22.14.4-.11.58l-1.51,1.12c-.25.18-.43.14-.61-.11-1.08-1.66-2.23-3.02-3.64-4.18l1.91-1.33Zm3.2-2.34c.22-.14.32-.11.54.07,1.33,1.01,2.63,2.45,3.42,3.71.14.22.18.43-.11.65l-1.44,1.12c-.29.22-.47.11-.61-.11-.97-1.55-2.12-2.92-3.6-4.14l1.8-1.3Z"/><path class="cls-1" d="m260.65,46.14c5.54-1.87,10.04-2.99,12.96-2.99,6.44,0,10.58,3.89,10.58,9.54,0,4.72-2.05,7.7-6.34,10.01-3.02,1.69-5.83,2.27-9.14,2.99-.72.14-1.01.11-1.26-.58-.43-1.01-1.33-2.09-2.52-2.84,4.75-.79,7.31-1.48,9.76-2.66,3.06-1.55,4.97-3.85,4.97-7.16s-2.2-5.47-6.19-5.47c-3.24,0-7.52,1.3-13,3.71-1.15.58-2.05.97-2.48,1.3-.5.43-.79.54-.97.54-.36,0-.65-.22-1.04-.76-.65-.79-1.55-2.2-2.3-3.74,1.58-.18,2.92-.5,6.98-1.87Z"/><path class="cls-1" d="m311.3,44.77c-.83,6.12-2.34,11.74-4.5,15.52-1.55,2.7-3.42,4.14-6.12,4.14-3.17,0-6.37-3.38-6.37-9.25,0-3.46,1.48-6.77,4.07-9.36,3.02-3.02,6.84-4.61,11.7-4.61,8.64,0,13.72,5.33,13.72,12.49,0,6.7-3.78,10.91-11.09,13.1-.76.22-1.08.07-1.55-.65-.4-.61-1.15-1.44-2.52-2.27,6.08-1.44,10.87-3.96,10.87-10.76,0-4.28-3.24-8.35-8.06-8.35h-.14Zm-10.33,3.49c-1.73,1.94-2.81,4.36-2.81,6.66,0,3.31,1.33,5.15,2.45,5.15.94,0,1.73-.47,2.7-2.2,1.58-2.92,3.2-8.1,3.82-12.89-2.52.5-4.54,1.51-6.16,3.28Z"/><path class="cls-1" d="m340.1,58.38c1.26-.58,2.48-1.15,3.74-1.84-.04.61-.04,1.55,0,2.34q.04,1.19-.9,1.73c-2.38,1.26-5.04,2.41-7.78,3.46-.58.25-.94.4-1.12.54-.22.18-.36.25-.58.25-.18,0-.32-.11-.47-.47-.32-.94-.61-2.09-.9-3.38,1.08-.18,2.12-.47,3.38-.86l1.04-.36v-7.81c-2.27,0-2.95.07-3.17.07-.36,0-.4-.04-.4-.4v-2.59c0-.4.04-.43.4-.43.22,0,.9.07,3.17.07v-6.34h-.22c-2.41,0-3.17.07-3.38.07-.32,0-.36-.04-.36-.4v-2.63c0-.4.04-.43.36-.43.22,0,.97.07,3.38.07h3.74c2.45,0,3.2-.07,3.38-.07.36,0,.4.04.4.43v2.63c0,.36-.04.4-.4.4-.18,0-.94-.07-3.35-.07v6.34c1.98,0,2.66-.07,2.88-.07.36,0,.36.04.36.43v2.59c0,.36,0,.4-.36.4-.22,0-.9-.07-2.88-.07v6.41Zm6.59,9.65c-3.56,0-4.79.07-5,.07-.36,0-.4-.04-.4-.4v-2.56c0-.36.04-.4.4-.4.22,0,1.44.07,5,.07h5.47v-3.53h-2.23c-3.31,0-4.43.07-4.64.07-.36,0-.4-.04-.4-.4v-2.48c0-.36.04-.4.4-.4.22,0,1.33.07,4.64.07h2.23v-3.1h-2.34c-3.28,0-4.46.07-4.68.07-.4,0-.43-.04-.43-.36,0-.22.07-1.37.07-4v-7.99c0-2.56-.07-3.67-.07-3.92,0-.36.04-.4.43-.4.22,0,1.4.07,4.68.07h8.57c3.31,0,4.46-.07,4.72-.07.36,0,.4.04.4.4,0,.22-.07,1.37-.07,3.92v7.99c0,2.63.07,3.78.07,4,0,.32-.04.36-.4.36-.25,0-1.4-.07-4.72-.07h-2.63v3.1h2.74c3.28,0,4.43-.07,4.64-.07.36,0,.4.04.4.4v2.48c0,.36-.04.4-.4.4-.22,0-1.37-.07-4.64-.07h-2.74v3.53h4.14c3.53,0,4.79-.07,4.97-.07.36,0,.4.04.4.4v2.56c0,.36-.04.4-.4.4-.18,0-1.44-.07-4.97-.07h-13.21Zm5.47-22.79v-3.64h-4v3.64h4Zm0,6.8v-3.85h-4v3.85h4Zm3.6-10.44v3.64h4.25v-3.64h-4.25Zm4.25,6.59h-4.25v3.85h4.25v-3.85Z"/><path class="cls-1" d="m374.48,69.47c-.36,0-.4-.04-.4-.36,0-.25.07-1.91.07-10.51v-6.26c0-6.12-.07-7.85-.07-8.06,0-.36.04-.4.4-.4.25,0,1.44.07,4.9.07h6.7v-1.91c0-2.2-.04-3.42-.29-5.18,1.37.04,2.77.11,4.03.25.32,0,.54.22.54.43,0,.25-.11.5-.22.86-.11.47-.18,1.15-.18,3.6v1.94h7.16c3.46,0,4.64-.07,4.9-.07.36,0,.4.04.4.4,0,.22-.07,1.94-.07,7.24v7.02c0,8.57.07,10.22.07,10.44,0,.32-.04.36-.4.36h-3.13c-.36,0-.4-.04-.4-.36v-1.51h-20.52v1.66c0,.32-.04.36-.4.36h-3.1Zm3.49-15.7h8.1v-6.34h-8.1v6.34Zm8.1,10.19v-6.77h-8.1v6.77h8.1Zm3.89-16.52v6.34h8.53v-6.34h-8.53Zm8.53,16.52v-6.77h-8.53v6.77h8.53Z"/><path class="cls-1" d="m230.08,32.74c4.66,2.12,6.99,7.78,6.99,16.97,0,6.58-1.09,11.45-3.26,14.62-2.18,3.17-5.63,4.76-10.36,4.76s-8.07-1.52-10.02-4.57c-1.95-3.05-2.92-7.84-2.92-14.39v-2.99h7.68v3.11c0,4.79.33,8,.98,9.65.65,1.65,2.1,2.48,4.34,2.48s3.75-.95,4.53-2.84c.78-1.89,1.17-5.29,1.17-10.19s-.53-8.34-1.59-10.33c-1.06-1.98-2.95-2.97-5.66-2.97h-2.19v-6.33h2.11c1.89,0,3.33-.31,4.3-.92,1.97-1.23,2.96-4.85,2.96-10.86v-.23c0-4.48-.5-7.42-1.5-8.83-1-1.41-2.37-2.11-4.13-2.11s-3.03.8-3.84,2.4c-.81,1.6-1.21,4.48-1.21,8.66v1.61h-7.79v-1.73c0-6.06.98-10.53,2.96-13.4,1.97-2.87,5.27-4.3,9.9-4.3s8.02,1.47,10.17,4.4c2.15,2.93,3.22,7.36,3.22,13.3,0,8.34-2.28,13.36-6.83,15.05Z"/></g></svg>