<?xml version="1.0" encoding="UTF-8"?><svg id="_レイヤー_2" xmlns="http://www.w3.org/2000/svg" viewBox="0 0 60 60"><defs><style>.cls-1{fill:#fff;}.cls-1,.cls-2{stroke-width:0px;}.cls-2{fill:#ff3895;}</style></defs><g id="layout"><rect class="cls-2" width="60" height="60" rx="6" ry="6"/><path class="cls-1" d="m18.08,23.27c0-2.43.38-4.24,1.14-5.44.76-1.2,2.22-1.8,4.36-1.8s3.6.6,4.38,1.79c.78,1.19,1.17,3.01,1.17,5.45v13.09c0,2.52-.38,4.44-1.13,5.75-.75,1.31-2.22,1.97-4.4,1.97s-3.65-.65-4.4-1.95c-.75-1.3-1.12-3.22-1.12-5.77v-13.09Zm7.84-.17c0-2.66-.57-4.08-1.7-4.28-.18-.03-.43-.05-.76-.05s-.65.06-.96.19c-.31.12-.59.49-.84,1.1-.25.61-.38,1.62-.38,3.02v13.48c0,2.47.31,3.94.92,4.42.31.25.69.37,1.13.37s.75-.02.94-.06c.2-.02.41-.12.64-.31.67-.52,1.01-2,1.01-4.44v-13.45Z"/><path class="cls-1" d="m32.21,25.5c0-4.28.45-6.91,1.34-7.89.34-.37.69-.67,1.04-.9.67-.44,1.62-.65,2.83-.65,3,0,4.5,2.53,4.5,7.58,0,2.51-.65,4.99-1.95,7.44-.57,1.06-1.15,2.1-1.73,3.11-1.46,2.53-2.38,4.92-2.74,7.16h5.99v2.41h-9.1v-1.53c0-2.06,1.04-5.11,3.11-9.14.01-.01.35-.66,1.01-1.95.66-1.29,1.06-2.02,1.2-2.21.34-.63.62-1.48.83-2.54.21-1.06.32-2.13.32-3.22s-.08-1.98-.23-2.68c-.16-.7-.35-1.15-.58-1.38-.23-.22-.5-.33-.82-.33s-.57.06-.77.19c-.75.46-1.12,2-1.12,4.64v3.56h-3.14v-1.68Z"/></g></svg>