<?xml version="1.0" encoding="UTF-8"?><svg id="_レイヤー_2" xmlns="http://www.w3.org/2000/svg" viewBox="0 0 60 60"><defs><style>.cls-1{fill:#fff;}.cls-1,.cls-2{stroke-width:0px;}.cls-2{fill:#ff3895;}</style></defs><g id="layout"><rect class="cls-2" width="60" height="60" rx="6" ry="6"/><path class="cls-1" d="m17.66,23.27c0-2.43.38-4.24,1.14-5.44.76-1.2,2.22-1.8,4.36-1.8s3.6.6,4.38,1.79c.78,1.19,1.17,3.01,1.17,5.45v13.09c0,2.52-.38,4.44-1.13,5.75-.75,1.31-2.22,1.97-4.4,1.97s-3.65-.65-4.4-1.95c-.75-1.3-1.12-3.22-1.12-5.77v-13.09Zm7.84-.17c0-2.66-.57-4.08-1.7-4.28-.18-.03-.43-.05-.76-.05s-.65.06-.96.19c-.31.12-.59.49-.84,1.11-.25.61-.38,1.62-.38,3.02v13.48c0,2.47.31,3.94.92,4.42.31.25.69.37,1.13.37s.75-.02.94-.06c.2-.02.41-.12.64-.31.67-.52,1.01-2,1.01-4.44v-13.45Z"/><path class="cls-1" d="m39.51,29.33c1.89.86,2.83,3.15,2.83,6.88,0,2.67-.44,4.64-1.32,5.93-.88,1.29-2.28,1.93-4.2,1.93s-3.27-.62-4.06-1.85c-.79-1.23-1.18-3.18-1.18-5.84v-1.21h3.11v1.26c0,1.94.13,3.25.4,3.91.26.67.85,1,1.76,1s1.52-.38,1.84-1.15c.32-.77.47-2.15.47-4.13s-.22-3.38-.65-4.19c-.43-.8-1.2-1.21-2.3-1.21h-.89v-2.57h.86c.77,0,1.35-.12,1.74-.37.8-.5,1.2-1.97,1.2-4.4v-.09c0-1.82-.2-3.01-.61-3.58-.4-.57-.96-.86-1.67-.86s-1.23.32-1.56.97c-.33.65-.49,1.82-.49,3.51v.65h-3.16v-.7c0-2.46.4-4.27,1.2-5.43.8-1.16,2.14-1.74,4.02-1.74s3.25.59,4.12,1.78c.87,1.19,1.31,2.99,1.31,5.39,0,3.38-.92,5.42-2.77,6.1Z"/></g></svg>