<?xml version="1.0" encoding="UTF-8"?><svg id="_レイヤー_2" xmlns="http://www.w3.org/2000/svg" viewBox="0 0 60 60"><defs><style>.cls-1{fill:#fff;}.cls-1,.cls-2{stroke-width:0px;}.cls-2{fill:#ff3895;}</style></defs><g id="layout"><rect class="cls-2" width="60" height="60" rx="6" ry="6"/><path class="cls-1" d="m20,23.27c0-2.43.38-4.24,1.14-5.44.76-1.2,2.22-1.8,4.36-1.8s3.6.6,4.38,1.79c.78,1.19,1.17,3.01,1.17,5.45v13.09c0,2.52-.38,4.44-1.13,5.75-.75,1.31-2.22,1.97-4.4,1.97s-3.65-.65-4.4-1.95c-.75-1.3-1.12-3.22-1.12-5.77v-13.09Zm7.84-.17c0-2.66-.57-4.08-1.7-4.28-.18-.03-.43-.05-.76-.05s-.65.06-.96.19c-.31.12-.59.49-.84,1.11-.25.61-.38,1.62-.38,3.02v13.48c0,2.47.31,3.94.92,4.42.31.25.69.37,1.13.37s.75-.02.94-.06c.2-.02.41-.12.64-.31.67-.52,1.01-2,1.01-4.44v-13.45Z"/><path class="cls-1" d="m37.73,16.35h2.27v27.41h-3.21v-23.08c-.35.43-.85.75-1.49.99-.64.23-1.28.35-1.9.35v-2.24c.88-.12,1.72-.48,2.51-1.07.79-.59,1.4-1.37,1.81-2.35Z"/></g></svg>